<mxfile host="app.diagrams.net" modified="2024-05-17T01:51:35.436Z" agent="Mozilla/5.0 (Windows NT 10.0; Win64; x64) AppleWebKit/537.36 (KHTML, like Gecko) Chrome/124.0.0.0 Safari/537.36" etag="wcX6TfSJz4pvng2m64ve" version="24.4.3" type="github">
  <diagram name="第 1 页" id="29ARazVqqG_3N2AniJl4">
    <mxGraphModel dx="1194" dy="716" grid="1" gridSize="10" guides="1" tooltips="1" connect="1" arrows="1" fold="1" page="1" pageScale="1" pageWidth="827" pageHeight="1169" math="0" shadow="0">
      <root>
        <mxCell id="0" />
        <mxCell id="1" parent="0" />
        <mxCell id="FVLUk-xj5XLvNhiZa9dB-1" value="" style="rounded=1;whiteSpace=wrap;html=1;fillColor=#dae8fc;strokeColor=#6c8ebf;" vertex="1" parent="1">
          <mxGeometry x="70" y="10" width="650" height="710" as="geometry" />
        </mxCell>
        <mxCell id="FVLUk-xj5XLvNhiZa9dB-2" value="&amp;lt;div id=&quot;root&quot;&amp;gt;&amp;lt;/div&amp;gt;&amp;gt;" style="text;html=1;align=center;verticalAlign=middle;whiteSpace=wrap;rounded=0;" vertex="1" parent="1">
          <mxGeometry x="325" y="30" width="140" height="30" as="geometry" />
        </mxCell>
        <mxCell id="FVLUk-xj5XLvNhiZa9dB-3" value="component A" style="rounded=0;whiteSpace=wrap;html=1;fillColor=#d5e8d4;strokeColor=#82b366;" vertex="1" parent="1">
          <mxGeometry x="335" y="120" width="120" height="60" as="geometry" />
        </mxCell>
        <mxCell id="FVLUk-xj5XLvNhiZa9dB-4" value="component B" style="rounded=0;whiteSpace=wrap;html=1;fillColor=#fff2cc;strokeColor=#d6b656;" vertex="1" parent="1">
          <mxGeometry x="335" y="230" width="120" height="60" as="geometry" />
        </mxCell>
        <mxCell id="FVLUk-xj5XLvNhiZa9dB-5" value="component C" style="rounded=0;whiteSpace=wrap;html=1;fillColor=#e1d5e7;strokeColor=#9673a6;" vertex="1" parent="1">
          <mxGeometry x="335" y="350" width="120" height="60" as="geometry" />
        </mxCell>
        <mxCell id="FVLUk-xj5XLvNhiZa9dB-6" value="context" style="shape=cylinder3;whiteSpace=wrap;html=1;boundedLbl=1;backgroundOutline=1;size=15;fillColor=#b1ddf0;strokeColor=#10739e;" vertex="1" parent="1">
          <mxGeometry x="150" y="100" width="60" height="80" as="geometry" />
        </mxCell>
        <mxCell id="FVLUk-xj5XLvNhiZa9dB-7" value="props" style="shape=cylinder3;whiteSpace=wrap;html=1;boundedLbl=1;backgroundOutline=1;size=15;fillColor=#b0e3e6;strokeColor=#0e8088;" vertex="1" parent="1">
          <mxGeometry x="150" y="220" width="60" height="80" as="geometry" />
        </mxCell>
      </root>
    </mxGraphModel>
  </diagram>
</mxfile>
